<svg width="178" height="43" viewBox="0 0 178 43" fill="none" xmlns="http://www.w3.org/2000/svg">
<g clip-path="url(#clip0_2590_162)">
<path d="M10.505 10.17H19.22L18.585 9.72501C17.025 8.63501 15.165 8.04501 13.26 8.04501H8.38V12.925C8.38 14.83 8.96501 16.69 10.06 18.25L10.505 18.885V10.17Z" fill="#724122"/>
<path d="M10.505 24.115L10.06 24.75C8.97001 26.31 8.38 28.17 8.38 30.075V34.955H13.26C15.165 34.955 17.025 34.37 18.585 33.275L19.22 32.83H10.505V24.115Z" fill="#724122"/>
<path d="M39.255 28.335C39.99 26.03 41.165 23.89 42.715 22.035L43.16 21.5L42.715 20.965C41.165 19.11 39.99 16.97 39.255 14.665L38.99 13.84V11.04C38.99 9.18501 39.125 7.33001 39.39 5.49501L39.655 3.67501L37.835 3.94001C36 4.20501 34.145 4.34001 32.29 4.34001H29.49L28.66 4.07501C26.355 3.34001 24.22 2.16501 22.365 0.615009L21.83 0.165009L21.295 0.615009C19.44 2.16501 17.305 3.34001 15 4.07501L14.17 4.34001H11.37C9.515 4.34001 7.66 4.20501 5.825 3.94001L4.005 3.67501L4.27 5.49501C4.535 7.33001 4.67 9.18501 4.67 11.04V13.84L4.405 14.665C3.67 16.97 2.495 19.11 0.945 20.965L0.5 21.5L0.95 22.035C2.5 23.89 3.675 26.025 4.41 28.33L4.675 29.16V31.96C4.675 33.815 4.54 35.67 4.275 37.505L4.01 39.325L5.83 39.06C7.665 38.795 9.52 38.66 11.375 38.66H14.175L15.005 38.925C17.32 39.66 19.44 40.825 21.3 42.385L21.835 42.83L22.37 42.385C24.235 40.825 26.35 39.66 28.665 38.925L29.495 38.66H32.295C34.15 38.66 36.005 38.795 37.84 39.06L39.66 39.325L39.395 37.505C39.13 35.67 38.995 33.815 38.995 31.96V29.16L39.26 28.335H39.255ZM37.93 37.6H29.49L28.66 37.335C26.345 36.6 24.225 35.435 22.365 33.875L21.83 33.43L21.295 33.875C19.43 35.435 17.315 36.6 15 37.335L14.175 37.6H5.73V29.16L5.995 28.335C6.73 26.02 7.895 23.9 9.455 22.04L9.9 21.505L9.455 20.97C7.895 19.105 6.73 16.99 5.995 14.675L5.73 13.845V5.40001H14.17L15 5.66501C17.315 6.40001 19.435 7.56501 21.295 9.12501L21.83 9.57001L22.365 9.12501C24.23 7.56501 26.345 6.40001 28.66 5.66501L29.49 5.40001H37.93V13.84L37.665 14.67C36.93 16.985 35.765 19.105 34.205 20.965L33.76 21.5L34.205 22.035C35.765 23.9 36.93 26.015 37.665 28.33L37.93 29.16V37.6ZM41.005 21.5C39.985 22.81 39.13 24.225 38.46 25.735C37.79 24.225 36.94 22.81 35.915 21.5C36.94 20.19 37.79 18.775 38.46 17.265C39.13 18.775 39.98 20.19 41.005 21.5ZM21.83 2.32501C23.14 3.34501 24.555 4.20001 26.065 4.87001C24.555 5.54001 23.14 6.39001 21.83 7.41501C20.52 6.39001 19.105 5.54001 17.595 4.87001C19.105 4.20001 20.52 3.35001 21.83 2.32501ZM2.66 21.5C3.685 20.19 4.535 18.775 5.205 17.265C5.875 18.775 6.725 20.19 7.75 21.5C6.73 22.81 5.875 24.225 5.205 25.735C4.535 24.225 3.685 22.81 2.66 21.5ZM21.83 40.675C20.52 39.65 19.105 38.8 17.595 38.13C19.105 37.46 20.52 36.61 21.83 35.585C23.14 36.61 24.555 37.46 26.065 38.13C24.555 38.8 23.14 39.65 21.83 40.675Z" fill="#9B582E"/>
<path d="M35.28 9.11002V8.05002H30.4C28.495 8.05002 26.635 8.63502 25.075 9.73002L24.44 10.175H33.11C32.775 14.405 30.455 18.08 27.08 20.275C25.07 19.205 22.665 18.565 20.235 18.485C19.9 18.475 19.57 18.44 19.24 18.4L17.425 18.17L17.575 19.795C17.68 20.935 17.68 22.08 17.575 23.215L17.425 24.84L19.24 24.61C19.57 24.57 19.9 24.535 20.235 24.525C22.665 24.445 25.07 23.805 27.08 22.735C30.455 24.925 32.775 28.605 33.11 32.835H24.44L25.075 33.28C26.635 34.37 28.495 34.96 30.4 34.96H35.28V33.9C35.28 28.83 32.82 24.325 29.03 21.51C32.82 18.7 35.28 14.19 35.28 9.12002V9.11002ZM19.715 22.56V20.435C21.415 20.435 23.2 20.91 24.695 21.495C23.195 22.08 21.415 22.555 19.715 22.555V22.56Z" fill="#724122"/>
<path d="M52.57 19.96L58.715 13.66H61.895L54.76 20.81L61.94 29.45H58.75L53.065 22.425L52.575 22.915V29.45H50.19V13.66H52.575V19.96H52.57Z" fill="#9B582E"/>
<path d="M69.415 22.72L74.305 29.45H71.39L66.88 22.985H66.45V29.45H64.065V13.66H66.855C68.94 13.66 70.45 14.05 71.375 14.835C72.4 15.71 72.91 16.86 72.91 18.29C72.91 19.41 72.59 20.37 71.95 21.175C71.31 21.98 70.465 22.495 69.415 22.72ZM66.45 20.91H67.205C69.46 20.91 70.59 20.05 70.59 18.325C70.59 16.71 69.49 15.9 67.295 15.9H66.445V20.91H66.45Z" fill="#9B582E"/>
<path d="M79.055 13.66V29.45H76.67V13.66H79.055Z" fill="#9B582E"/>
<path d="M91.33 16.015L89.395 17.16C89.035 16.535 88.69 16.125 88.36 15.935C88.02 15.715 87.58 15.61 87.04 15.61C86.38 15.61 85.83 15.795 85.395 16.17C84.96 16.54 84.74 17 84.74 17.56C84.74 18.33 85.315 18.95 86.46 19.42L88.035 20.065C89.315 20.585 90.255 21.215 90.845 21.96C91.44 22.705 91.735 23.62 91.735 24.705C91.735 26.155 91.25 27.355 90.285 28.305C89.31 29.26 88.1 29.735 86.655 29.735C85.285 29.735 84.155 29.33 83.26 28.52C82.38 27.71 81.83 26.565 81.615 25.095L84.03 24.565C84.14 25.49 84.33 26.135 84.605 26.49C85.095 27.17 85.81 27.515 86.75 27.515C87.495 27.515 88.11 27.265 88.6 26.77C89.09 26.27 89.335 25.64 89.335 24.88C89.335 24.575 89.29 24.29 89.205 24.035C89.12 23.78 88.985 23.545 88.805 23.33C88.625 23.115 88.39 22.915 88.105 22.725C87.82 22.54 87.48 22.36 87.08 22.19L85.555 21.555C83.395 20.64 82.315 19.305 82.315 17.545C82.315 16.36 82.77 15.365 83.675 14.57C84.58 13.765 85.71 13.365 87.06 13.365C88.88 13.365 90.3 14.25 91.325 16.025L91.33 16.015Z" fill="#9B582E"/>
<path d="M99.265 15.9V29.45H96.88V15.9H93.25V13.66H102.885V15.9H99.265Z" fill="#9B582E"/>
<path d="M109.665 18.01L104.46 29.45H101.895L109.705 12.67L117.24 29.45H114.635L109.665 18.01Z" fill="#9B582E"/>
<path d="M121.6 13.66V27.21H126.24V29.45H119.215V13.66H121.6Z" fill="#9B582E"/>
<path d="M130.885 13.66V27.21H135.525V29.45H128.5V13.66H130.885Z" fill="#9B582E"/>
<path d="M140.17 13.66V29.45H137.785V13.66H140.17Z" fill="#9B582E"/>
<path d="M143.96 29.45V12.59L155.475 24.635V13.665H157.86V30.415L146.345 18.4V29.455H143.96V29.45Z" fill="#9B582E"/>
<path d="M160.995 21.485C160.995 19.265 161.81 17.355 163.44 15.76C165.06 14.165 167.01 13.365 169.29 13.365C171.57 13.365 173.47 14.17 175.08 15.78C176.695 17.39 177.505 19.32 177.505 21.58C177.505 23.84 176.695 25.775 175.07 27.36C173.44 28.95 171.475 29.745 169.17 29.745C167.13 29.745 165.3 29.04 163.68 27.63C161.895 26.07 161 24.025 161 21.495L160.995 21.485ZM163.4 21.515C163.4 23.26 163.985 24.695 165.16 25.82C166.325 26.945 167.67 27.505 169.2 27.505C170.855 27.505 172.255 26.93 173.39 25.785C174.53 24.625 175.1 23.215 175.1 21.55C175.1 19.885 174.535 18.455 173.415 17.315C172.295 16.17 170.915 15.595 169.265 15.595C167.615 15.595 166.235 16.17 165.105 17.315C163.975 18.445 163.405 19.845 163.405 21.51L163.4 21.515Z" fill="#9B582E"/>
<path d="M171.33 21.515C170.48 22.605 169.775 23.78 169.215 25.035C168.66 23.78 167.95 22.605 167.1 21.515C167.95 20.425 168.655 19.25 169.215 17.995C169.77 19.25 170.48 20.425 171.33 21.515Z" fill="#9B582E"/>
<path d="M111.68 26.89C110.83 27.98 110.125 29.155 109.565 30.41C109.01 29.155 108.3 27.98 107.45 26.89C108.3 25.8 109.005 24.625 109.565 23.37C110.12 24.625 110.83 25.8 111.68 26.89Z" fill="#9B582E"/>
</g>
<defs>
<clipPath id="clip0_2590_162">
<rect width="178" height="43" fill="white"/>
</clipPath>
</defs>
</svg>
